{
  "asset": {
    "version": "2.0",
    "generator": "DirectX12Dev sample generator (this repository)"
  },
  "scene": 0,
  "scenes": [
    {
      "nodes": [
        0
      ]
    }
  ],
  "nodes": [
    {
      "name": "Sphere",
      "mesh": 0
    }
  ],
  "meshes": [
    {
      "name": "Sphere",
      "primitives": [
        {
          "attributes": {
            "POSITION": 0,
            "NORMAL": 1,
            "TEXCOORD_0": 2
          },
          "indices": 3,
          "mode": 4
        }
      ]
    }
  ],
  "buffers": [
    {
      "uri": "sphere.bin",
      "byteLength": 24096
    }
  ],
  "bufferViews": [
    {
      "buffer": 0,
      "byteOffset": 0,
      "byteLength": 6732
    },
    {
      "buffer": 0,
      "byteOffset": 6732,
      "byteLength": 6732
    },
    {
      "buffer": 0,
      "byteOffset": 13464,
      "byteLength": 4488
    },
    {
      "buffer": 0,
      "byteOffset": 17952,
      "byteLength": 6144
    }
  ],
  "accessors": [
    {
      "bufferView": 0,
      "componentType": 5126,
      "count": 561,
      "type": "VEC3",
      "min": [
        -1.0,
        -1.0,
        -1.0
      ],
      "max": [
        1.0,
        1.0,
        1.0
      ]
    },
    {
      "bufferView": 1,
      "componentType": 5126,
      "count": 561,
      "type": "VEC3"
    },
    {
      "bufferView": 2,
      "componentType": 5126,
      "count": 561,
      "type": "VEC2"
    },
    {
      "bufferView": 3,
      "componentType": 5123,
      "count": 3072,
      "type": "SCALAR"
    }
  ]
}
